<svg width="35" height="34" viewBox="0 0 35 34" fill="none" xmlns="http://www.w3.org/2000/svg">
<mask id="path-1-inside-1_211_2338" fill="white">
<path d="M20.315 16.6106C20.1474 16.6106 19.9918 16.5645 19.8536 16.4904V16.4924C19.8536 16.7561 19.7511 17.0037 19.5651 17.1892C19.3791 17.3752 19.1317 17.4777 18.8683 17.4777C18.6982 17.4777 18.5406 17.4304 18.4009 17.3543C18.3868 17.5956 18.2904 17.8211 18.1183 17.9933C17.9324 18.1792 17.6849 18.2817 17.4214 18.2817C16.8977 18.2817 16.4725 17.8701 16.4418 17.3542C16.2798 17.4418 16.0966 17.4877 15.9077 17.4755C15.3926 17.4418 14.9892 16.9967 14.9892 16.462V12.0304L14.4845 12.9047C14.2923 13.239 13.9326 13.4466 13.5452 13.4466C13.3564 13.4466 13.17 13.3971 13.0048 13.3025C12.7992 13.1833 12.6521 12.9919 12.5909 12.7629C12.5294 12.5338 12.5612 12.2943 12.6801 12.0889C12.6803 12.0889 14.3312 9.23002 14.4319 9.05441C14.4439 9.02801 14.478 8.95143 14.507 8.88616C14.5347 8.82384 14.5585 8.75988 14.5813 8.6956C15.0792 7.29004 16.3119 6.41693 17.7987 6.41693C19.7294 6.41693 21.3001 8.12015 21.3001 10.2137L21.3003 15.6252C21.3003 15.8886 21.1979 16.136 21.0121 16.3222C20.8262 16.5082 20.5787 16.6107 20.315 16.6107L20.315 16.6106ZM17.7987 6.94048C16.5212 6.94048 15.503 7.66207 15.0748 8.87069C15.0474 8.94744 15.0189 9.02418 14.9856 9.09897C14.889 9.3156 14.889 9.3156 14.8618 9.34676L14.8582 9.34364C14.7234 9.59799 14.3229 10.2915 13.1335 12.3509C13.0846 12.4354 13.0716 12.5335 13.0966 12.6273C13.1218 12.7211 13.1823 12.8001 13.2661 12.8485C13.5262 12.9979 13.8824 12.9015 14.0307 12.6432L15.0243 10.9229C15.0837 10.8204 15.2037 10.77 15.3188 10.8012C15.4333 10.8319 15.5128 10.9357 15.5128 11.0541V16.4622C15.5128 16.7174 15.7054 16.9376 15.942 16.9532C16.0785 16.9604 16.2057 16.9146 16.3013 16.8192C16.3882 16.7323 16.4361 16.6165 16.4361 16.4927V12.9557C16.4361 12.8111 16.5534 12.6938 16.698 12.6938C16.8427 12.6938 16.9599 12.8109 16.9599 12.9557L16.9597 17.2967C16.9597 17.5512 17.1669 17.7583 17.4214 17.7583C17.545 17.7583 17.6611 17.7104 17.7482 17.6235C17.8351 17.5364 17.883 17.4203 17.883 17.2966V12.9557C17.883 12.8111 18.0001 12.6938 18.1449 12.6938C18.2896 12.6938 18.4068 12.8109 18.4068 12.9557L18.4067 16.452V16.4927C18.4067 16.747 18.6138 16.9541 18.8685 16.9541C18.9919 16.9541 19.1077 16.9061 19.1953 16.8189C19.2822 16.7321 19.3301 16.6163 19.3301 16.4925V12.9555C19.3301 12.8109 19.4472 12.6936 19.592 12.6936C19.7366 12.6936 19.8539 12.8107 19.8539 12.9555L19.8536 15.6253C19.8536 15.88 20.0607 16.0871 20.315 16.0871C20.4388 16.0871 20.5546 16.0391 20.6415 15.9523C20.7288 15.8651 20.7765 15.749 20.7765 15.6253L20.7767 10.2138C20.7767 8.40911 19.4408 6.94053 17.7987 6.94053L17.7987 6.94048Z"/>
</mask>
<path d="M20.315 16.6106C20.1474 16.6106 19.9918 16.5645 19.8536 16.4904V16.4924C19.8536 16.7561 19.7511 17.0037 19.5651 17.1892C19.3791 17.3752 19.1317 17.4777 18.8683 17.4777C18.6982 17.4777 18.5406 17.4304 18.4009 17.3543C18.3868 17.5956 18.2904 17.8211 18.1183 17.9933C17.9324 18.1792 17.6849 18.2817 17.4214 18.2817C16.8977 18.2817 16.4725 17.8701 16.4418 17.3542C16.2798 17.4418 16.0966 17.4877 15.9077 17.4755C15.3926 17.4418 14.9892 16.9967 14.9892 16.462V12.0304L14.4845 12.9047C14.2923 13.239 13.9326 13.4466 13.5452 13.4466C13.3564 13.4466 13.17 13.3971 13.0048 13.3025C12.7992 13.1833 12.6521 12.9919 12.5909 12.7629C12.5294 12.5338 12.5612 12.2943 12.6801 12.0889C12.6803 12.0889 14.3312 9.23002 14.4319 9.05441C14.4439 9.02801 14.478 8.95143 14.507 8.88616C14.5347 8.82384 14.5585 8.75988 14.5813 8.6956C15.0792 7.29004 16.3119 6.41693 17.7987 6.41693C19.7294 6.41693 21.3001 8.12015 21.3001 10.2137L21.3003 15.6252C21.3003 15.8886 21.1979 16.136 21.0121 16.3222C20.8262 16.5082 20.5787 16.6107 20.315 16.6107L20.315 16.6106ZM17.7987 6.94048C16.5212 6.94048 15.503 7.66207 15.0748 8.87069C15.0474 8.94744 15.0189 9.02418 14.9856 9.09897C14.889 9.3156 14.889 9.3156 14.8618 9.34676L14.8582 9.34364C14.7234 9.59799 14.3229 10.2915 13.1335 12.3509C13.0846 12.4354 13.0716 12.5335 13.0966 12.6273C13.1218 12.7211 13.1823 12.8001 13.2661 12.8485C13.5262 12.9979 13.8824 12.9015 14.0307 12.6432L15.0243 10.9229C15.0837 10.8204 15.2037 10.77 15.3188 10.8012C15.4333 10.8319 15.5128 10.9357 15.5128 11.0541V16.4622C15.5128 16.7174 15.7054 16.9376 15.942 16.9532C16.0785 16.9604 16.2057 16.9146 16.3013 16.8192C16.3882 16.7323 16.4361 16.6165 16.4361 16.4927V12.9557C16.4361 12.8111 16.5534 12.6938 16.698 12.6938C16.8427 12.6938 16.9599 12.8109 16.9599 12.9557L16.9597 17.2967C16.9597 17.5512 17.1669 17.7583 17.4214 17.7583C17.545 17.7583 17.6611 17.7104 17.7482 17.6235C17.8351 17.5364 17.883 17.4203 17.883 17.2966V12.9557C17.883 12.8111 18.0001 12.6938 18.1449 12.6938C18.2896 12.6938 18.4068 12.8109 18.4068 12.9557L18.4067 16.452V16.4927C18.4067 16.747 18.6138 16.9541 18.8685 16.9541C18.9919 16.9541 19.1077 16.9061 19.1953 16.8189C19.2822 16.7321 19.3301 16.6163 19.3301 16.4925V12.9555C19.3301 12.8109 19.4472 12.6936 19.592 12.6936C19.7366 12.6936 19.8539 12.8107 19.8539 12.9555L19.8536 15.6253C19.8536 15.88 20.0607 16.0871 20.315 16.0871C20.4388 16.0871 20.5546 16.0391 20.6415 15.9523C20.7288 15.8651 20.7765 15.749 20.7765 15.6253L20.7767 10.2138C20.7767 8.40911 19.4408 6.94053 17.7987 6.94053L17.7987 6.94048Z" fill="#4CAF4F"/>
<path d="M20.315 16.6106V15.6825H23.594L20.8015 17.401L20.315 16.6106ZM19.8536 16.4904H18.9255V14.9397L20.2921 15.6725L19.8536 16.4904ZM19.5651 17.1892L18.9088 16.5329L18.9097 16.5321L19.5651 17.1892ZM18.4009 17.3543L17.4744 17.3002L17.5598 15.8395L18.8448 16.5393L18.4009 17.3543ZM18.1183 17.9933L18.775 18.6492L18.7746 18.6495L18.1183 17.9933ZM16.4418 17.3542L16.0006 16.5377L17.2819 15.8452L17.3683 17.2992L16.4418 17.3542ZM15.9077 17.4755L15.8482 18.4017L15.847 18.4016L15.9077 17.4755ZM14.9892 12.0304L14.1854 11.5665L15.9173 8.56604V12.0304H14.9892ZM14.4845 12.9047L13.6799 12.4422L13.6807 12.4407L14.4845 12.9047ZM13.0048 13.3025L12.5434 14.1078L12.5394 14.1054L13.0048 13.3025ZM12.5909 12.7629L13.4873 12.5223L13.4876 12.5234L12.5909 12.7629ZM12.6801 12.0889L11.877 11.6239L12.1451 11.1608H12.6801V12.0889ZM14.4319 9.05441L15.2772 9.43767L15.259 9.47786L15.237 9.51614L14.4319 9.05441ZM14.507 8.88616L13.659 8.50903L13.659 8.50902L14.507 8.88616ZM14.5813 8.6956L15.4562 9.00547L15.4561 9.00572L14.5813 8.6956ZM21.3001 10.2137L20.372 10.2137V10.2137H21.3001ZM21.3003 15.6252L22.2283 15.6252V15.6252H21.3003ZM21.0121 16.3222L21.669 16.9778L21.6684 16.9784L21.0121 16.3222ZM20.315 16.6107V17.5387H17.036L19.8286 15.8202L20.315 16.6107ZM17.7987 6.94048V6.01239H19.0291L18.6911 7.19545L17.7987 6.94048ZM15.0748 8.87069L15.9496 9.18061L15.9489 9.1826L15.0748 8.87069ZM14.9856 9.09897L15.8335 9.47642L15.8332 9.47691L14.9856 9.09897ZM14.8618 9.34676L15.5607 9.95741L14.9535 10.6523L14.2552 10.0492L14.8618 9.34676ZM14.8582 9.34364L14.0381 8.90904L14.5834 7.88008L15.4648 8.64124L14.8582 9.34364ZM13.1335 12.3509L13.9371 12.8151L13.9367 12.8158L13.1335 12.3509ZM13.0966 12.6273L12.2004 12.8685L12.1996 12.8656L13.0966 12.6273ZM13.2661 12.8485L12.8039 13.6533L12.8021 13.6523L13.2661 12.8485ZM14.0307 12.6432L13.2257 12.1812L13.227 12.179L14.0307 12.6432ZM15.0243 10.9229L14.2206 10.4587L14.2212 10.4577L15.0243 10.9229ZM15.3188 10.8012L15.0787 11.6977L15.0764 11.6971L15.3188 10.8012ZM15.942 16.9532L15.893 17.8801L15.8811 17.8793L15.942 16.9532ZM16.3013 16.8192L16.9576 17.4755L16.957 17.476L16.3013 16.8192ZM16.9599 12.9557H17.888V12.9557L16.9599 12.9557ZM16.9597 17.2967H16.0317V17.2966L16.9597 17.2967ZM17.7482 17.6235L18.4051 18.2791L18.4038 18.2804L17.7482 17.6235ZM18.4068 12.9557H19.3349V12.9557L18.4068 12.9557ZM18.4067 16.452H17.4786V16.452L18.4067 16.452ZM19.1953 16.8189L19.8509 17.4757L19.8503 17.4763L19.1953 16.8189ZM19.8539 12.9555H20.782V12.9556L19.8539 12.9555ZM19.8536 15.6253H18.9255V15.6252L19.8536 15.6253ZM20.6415 15.9523L21.2978 16.6086L21.2972 16.6092L20.6415 15.9523ZM20.7765 15.6253H19.8484V15.6253L20.7765 15.6253ZM20.7767 10.2138H21.7048V10.2139L20.7767 10.2138ZM17.7987 6.94053V7.86862H16.5683L16.9063 6.68556L17.7987 6.94053ZM20.315 17.5387C19.9733 17.5387 19.6682 17.4441 19.415 17.3084L20.2921 15.6725C20.3041 15.6789 20.3117 15.6814 20.3148 15.6822C20.3174 15.6829 20.317 15.6825 20.315 15.6825V17.5387ZM20.7817 16.4904V16.4924H18.9255V16.4904H20.7817ZM20.7817 16.4924C20.7817 17.0015 20.5819 17.4859 20.2205 17.8463L18.9097 16.5321C18.9163 16.5255 18.9196 16.5198 18.9216 16.5152C18.9235 16.5105 18.9255 16.5034 18.9255 16.4924H20.7817ZM20.2214 17.8455C19.8612 18.2056 19.3776 18.4058 18.8683 18.4058V16.5496C18.8789 16.5496 18.886 16.5476 18.8907 16.5457C18.8955 16.5437 18.9016 16.5402 18.9088 16.5329L20.2214 17.8455ZM18.8683 18.4058C18.5221 18.4058 18.2132 18.3089 17.957 18.1694L18.8448 16.5393C18.8569 16.5459 18.8645 16.5484 18.8676 16.5492C18.8702 16.5499 18.8699 16.5496 18.8683 16.5496V18.4058ZM19.3274 17.4085C19.3007 17.8653 19.1154 18.3084 18.775 18.6492L17.4617 17.3374C17.4652 17.3339 17.4672 17.3309 17.4689 17.327C17.4707 17.3229 17.4736 17.3144 17.4744 17.3002L19.3274 17.4085ZM18.7746 18.6495C18.4144 19.0098 17.9308 19.2098 17.4214 19.2098V17.3536C17.4322 17.3536 17.4392 17.3517 17.444 17.3497C17.4487 17.3478 17.4548 17.3443 17.4621 17.337L18.7746 18.6495ZM17.4214 19.2098C16.3967 19.2098 15.5746 18.4057 15.5154 17.4092L17.3683 17.2992C17.3692 17.3149 17.3757 17.3288 17.3871 17.3397C17.3927 17.345 17.3983 17.3484 17.4033 17.3504C17.4076 17.3522 17.4131 17.3536 17.4214 17.3536V19.2098ZM16.8831 18.1707C16.5833 18.3327 16.2279 18.4261 15.8482 18.4017L15.9672 16.5494C15.9672 16.5494 15.9692 16.5496 15.9741 16.5484C15.9793 16.5472 15.9884 16.5443 16.0006 16.5377L16.8831 18.1707ZM15.847 18.4016C14.8165 18.3341 14.0611 17.4577 14.0611 16.462H15.9173C15.9173 16.4934 15.9287 16.5176 15.9429 16.5334C15.9569 16.5487 15.9663 16.5493 15.9684 16.5494L15.847 18.4016ZM14.0611 16.462V12.0304H15.9173V16.462H14.0611ZM15.793 12.4944L15.2883 13.3686L13.6807 12.4407L14.1854 11.5665L15.793 12.4944ZM15.2892 13.3672C14.9306 13.9911 14.263 14.3747 13.5452 14.3747V12.5186C13.6021 12.5186 13.6541 12.487 13.6799 12.4422L15.2892 13.3672ZM13.5452 14.3747C13.1942 14.3747 12.8487 14.2827 12.5434 14.1078L13.4663 12.4972C13.4912 12.5115 13.5187 12.5186 13.5452 12.5186V14.3747ZM12.5394 14.1054C12.1227 13.8638 11.8194 13.4707 11.6943 13.0025L13.4876 12.5234C13.4867 12.5202 13.4844 12.5146 13.4799 12.5088C13.4755 12.503 13.4714 12.5002 13.4703 12.4996L12.5394 14.1054ZM11.6946 13.0035C11.569 12.5357 11.6347 12.0422 11.877 11.6239L13.4833 12.554C13.4846 12.5517 13.4869 12.5464 13.4879 12.5389C13.4889 12.5314 13.4881 12.5254 13.4873 12.5223L11.6946 13.0035ZM12.6801 11.1608C12.2249 11.2802 11.8841 11.6117 11.8816 11.616C11.8807 11.6175 11.8795 11.6196 11.8791 11.6203C11.8788 11.6207 11.8784 11.6214 11.8783 11.6216C11.8782 11.6217 11.878 11.622 11.878 11.6221C11.8779 11.6223 11.8779 11.6223 11.8783 11.6216C11.8789 11.6206 11.8799 11.6187 11.8815 11.6161C11.8845 11.6108 11.8891 11.6029 11.8952 11.5924C11.9072 11.5715 11.925 11.5408 11.9477 11.5015C11.993 11.423 12.0579 11.3107 12.1361 11.1753C12.2924 10.9046 12.5019 10.5418 12.7146 10.1735C13.1406 9.4356 13.5774 8.67895 13.6268 8.59269L15.237 9.51614C15.1858 9.60549 14.7467 10.3661 14.3221 11.1016C14.1094 11.4699 13.8998 11.8328 13.7435 12.1036C13.6653 12.239 13.6004 12.3514 13.555 12.43C13.5323 12.4692 13.5145 12.5001 13.5023 12.5211C13.4962 12.5317 13.4915 12.5398 13.4883 12.5454C13.4867 12.5481 13.4854 12.5504 13.4844 12.552C13.484 12.5528 13.4834 12.5538 13.4829 12.5547C13.4827 12.555 13.4821 12.5561 13.4814 12.5573C13.4809 12.5581 13.4796 12.5603 13.4788 12.5617C13.4762 12.5661 13.1354 12.8977 12.6801 13.017V11.1608ZM13.5867 8.67115C13.5969 8.64862 13.6292 8.57598 13.659 8.50903L15.3551 9.26328C15.3268 9.32688 15.2909 9.4074 15.2772 9.43767L13.5867 8.67115ZM13.659 8.50902C13.6719 8.48002 13.6862 8.44296 13.7066 8.38547L15.4561 9.00572C15.4309 9.07681 15.3976 9.16766 15.355 9.2633L13.659 8.50902ZM13.7065 8.38572C14.3351 6.61111 15.9173 5.48884 17.7987 5.48884V7.34503C16.7066 7.34503 15.8233 7.96897 15.4562 9.00547L13.7065 8.38572ZM17.7987 5.48884C20.3113 5.48884 22.2282 7.67978 22.2282 10.2137H20.372C20.372 8.56052 19.1475 7.34503 17.7987 7.34503V5.48884ZM22.2282 10.2137L22.2283 15.6252L20.3722 15.6252L20.372 10.2137L22.2282 10.2137ZM22.2283 15.6252C22.2283 16.1341 22.0287 16.6175 21.669 16.9778L20.3553 15.6665C20.3626 15.6592 20.3662 15.6529 20.3682 15.6481C20.3702 15.6432 20.3722 15.636 20.3722 15.6252H22.2283ZM21.6684 16.9784C21.3081 17.3387 20.8245 17.5387 20.315 17.5387V15.6826C20.3259 15.6826 20.333 15.6806 20.3378 15.6786C20.3425 15.6767 20.3486 15.6732 20.3559 15.6659L21.6684 16.9784ZM19.8286 15.8202L19.8286 15.8202L20.8015 17.401L20.8014 17.4011L19.8286 15.8202ZM17.7987 7.86857C16.9163 7.86857 16.2472 8.34061 15.9496 9.18061L14.2 8.56077C14.7587 6.98352 16.1261 6.01239 17.7987 6.01239V7.86857ZM15.9489 9.1826C15.9196 9.2647 15.8815 9.36839 15.8335 9.47642L14.1377 8.72151C14.1562 8.67998 14.1752 8.63017 14.2007 8.55877L15.9489 9.1826ZM15.8332 9.47691C15.7907 9.57223 15.7551 9.65273 15.7279 9.70726C15.711 9.7411 15.6836 9.79326 15.6439 9.85103C15.6037 9.90956 15.5639 9.95371 15.5607 9.95741L14.1629 8.7361C14.1651 8.73361 14.1643 8.73442 14.1632 8.7357C14.1618 8.73734 14.1582 8.74155 14.1535 8.74732C14.1486 8.75329 14.1424 8.76101 14.1354 8.77019C14.1284 8.77945 14.1213 8.7893 14.1141 8.79969C14.0996 8.82085 14.0884 8.83938 14.0804 8.8534C14.073 8.86648 14.0685 8.87553 14.0674 8.87757C14.0664 8.87968 14.0671 8.87844 14.0702 8.87169C14.0733 8.86514 14.0776 8.85572 14.0838 8.84201C14.0899 8.82841 14.0973 8.81199 14.1064 8.7917C14.1155 8.77144 14.1258 8.74823 14.1379 8.72102L15.8332 9.47691ZM14.2552 10.0492L14.2515 10.046L15.4648 8.64124L15.4684 8.64435L14.2552 10.0492ZM15.6782 9.77824C15.533 10.0523 15.1183 10.77 13.9371 12.8151L12.3298 11.8868C13.5275 9.81297 13.9138 9.14367 14.0381 8.90904L15.6782 9.77824ZM13.9367 12.8158C14.011 12.6874 14.0317 12.5326 13.9935 12.3889L12.1996 12.8656C12.1115 12.5343 12.1582 12.1833 12.3302 11.8861L13.9367 12.8158ZM13.9927 12.386C13.9545 12.2441 13.8607 12.1201 13.7301 12.0447L12.8021 13.6523C12.504 13.4802 12.2891 13.198 12.2004 12.8685L13.9927 12.386ZM13.7284 12.0437C13.6227 11.983 13.52 11.9834 13.4491 12.0025C13.3784 12.0216 13.2878 12.0731 13.2257 12.1812L14.8356 13.1052C14.4311 13.8099 13.5067 14.057 12.8039 13.6533L13.7284 12.0437ZM13.227 12.179L14.2206 10.4587L15.828 11.3871L14.8343 13.1074L13.227 12.179ZM14.2212 10.4577C14.4893 9.99489 15.0364 9.76328 15.5613 9.90534L15.0764 11.6971C15.371 11.7768 15.6781 11.6459 15.8274 11.388L14.2212 10.4577ZM15.559 9.90472C16.0797 10.0442 16.4409 10.516 16.4409 11.0541H14.5847C14.5847 11.3553 14.7869 11.6195 15.0787 11.6977L15.559 9.90472ZM16.4409 11.0541V16.4622H14.5847V11.0541H16.4409ZM16.4409 16.4622C16.4409 16.3564 16.4017 16.2603 16.3374 16.1867C16.2732 16.1133 16.1599 16.0374 16.003 16.0271L15.8811 17.8793C15.0998 17.8279 14.5847 17.1473 14.5847 16.4622H16.4409ZM15.991 16.0264C15.8814 16.0206 15.7474 16.0607 15.6456 16.1624L16.957 17.476C16.664 17.7685 16.2755 17.9002 15.893 17.88L15.991 16.0264ZM15.6451 16.1629C15.557 16.251 15.508 16.3717 15.508 16.4927H17.3642C17.3642 16.8613 17.2195 17.2136 16.9576 17.4755L15.6451 16.1629ZM15.508 16.4927V12.9557H17.3642V16.4927H15.508ZM15.508 12.9557C15.508 12.2985 16.0408 11.7657 16.698 11.7657V13.6219C17.0659 13.6219 17.3642 13.3236 17.3642 12.9557H15.508ZM16.698 11.7657C17.3549 11.7657 17.888 12.298 17.888 12.9557H16.0318C16.0318 13.3238 16.3305 13.6219 16.698 13.6219V11.7657ZM17.888 12.9557L17.8878 17.2967L16.0317 17.2966L16.0318 12.9557L17.888 12.9557ZM17.8878 17.2967C17.8878 17.0386 17.6794 16.8302 17.4214 16.8302V18.6864C16.6543 18.6864 16.0317 18.0637 16.0317 17.2967H17.8878ZM17.4214 16.8302C17.3006 16.8302 17.1805 16.8789 17.0926 16.9666L18.4038 18.2804C18.1418 18.5419 17.7895 18.6864 17.4214 18.6864V16.8302ZM17.0913 16.9678C17.0036 17.0558 16.9549 17.1759 16.9549 17.2966H18.8111C18.8111 17.6647 18.6667 18.0171 18.4051 18.2791L17.0913 16.9678ZM16.9549 17.2966V12.9557H18.8111V17.2966H16.9549ZM16.9549 12.9557C16.9549 12.2989 17.4872 11.7657 18.1449 11.7657V13.6219C18.5131 13.6219 18.8111 13.3232 18.8111 12.9557H16.9549ZM18.1449 11.7657C18.8018 11.7657 19.3349 12.2979 19.3349 12.9557H17.4787C17.4787 13.3238 17.7774 13.6219 18.1449 13.6219V11.7657ZM19.3349 12.9557L19.3347 16.4521L17.4786 16.452L17.4787 12.9557L19.3349 12.9557ZM19.3347 16.452V16.4927H17.4786V16.452H19.3347ZM19.3347 16.4927C19.3347 16.234 19.1259 16.0261 18.8685 16.0261V17.8822C18.1017 17.8822 17.4786 17.2601 17.4786 16.4927H19.3347ZM18.8685 16.0261C18.7451 16.0261 18.6257 16.0762 18.5403 16.1614L19.8503 17.4763C19.5897 17.736 19.2387 17.8822 18.8685 17.8822V16.0261ZM18.5397 16.162C18.4509 16.2506 18.402 16.3717 18.402 16.4925H20.2582C20.2582 16.861 20.1135 17.2136 19.8509 17.4757L18.5397 16.162ZM18.402 16.4925V12.9555H20.2582V16.4925H18.402ZM18.402 12.9555C18.402 12.2987 18.9342 11.7655 19.592 11.7655V13.6217C19.9601 13.6217 20.2582 13.3231 20.2582 12.9555H18.402ZM19.592 11.7655C20.2488 11.7655 20.782 12.2978 20.782 12.9555H18.9258C18.9258 13.3237 19.2244 13.6217 19.592 13.6217V11.7655ZM20.782 12.9556L20.7817 15.6254L18.9255 15.6252L18.9258 12.9554L20.782 12.9556ZM20.7817 15.6253C20.7817 15.3679 20.5737 15.159 20.315 15.159V17.0152C19.5477 17.0152 18.9255 16.3921 18.9255 15.6253H20.7817ZM20.315 15.159C20.1933 15.159 20.0732 15.2083 19.9859 15.2954L21.2972 16.6092C21.0361 16.8698 20.6844 17.0152 20.315 17.0152V15.159ZM19.9853 15.2961C19.8969 15.3844 19.8484 15.5051 19.8484 15.6253H21.7046C21.7046 15.9929 21.5607 16.3457 21.2978 16.6086L19.9853 15.2961ZM19.8484 15.6253L19.8486 10.2138L21.7048 10.2139L21.7046 15.6254L19.8484 15.6253ZM19.8486 10.2138C19.8486 8.8371 18.8475 7.86862 17.7987 7.86862V6.01244C20.034 6.01244 21.7048 7.98112 21.7048 10.2138H19.8486ZM16.9063 6.68556L16.9063 6.68551L18.6911 7.19545L18.6911 7.1955L16.9063 6.68556Z" fill="#4CAF4F" mask="url(#path-1-inside-1_211_2338)"/>
<path d="M11.8325 21.5856C11.7082 21.6603 11.5474 21.62 11.4731 21.4959C11.3987 21.3719 11.439 21.211 11.5629 21.1365M11.8325 21.5856L14.0951 18.541C14.3137 18.4097 14.602 18.4615 14.7368 18.6565M11.8325 21.5856L14.8653 19.7661H14.8655L14.8658 19.7659M11.8325 21.5856L16.0298 20.1442C16.1358 20.0806 16.2106 19.9799 16.2404 19.8603M11.5629 21.1365L14.5959 19.317C14.7018 19.2534 14.7768 19.1526 14.8066 19.0333M11.5629 21.1365L11.5936 21.1877L11.6976 21.3611L11.6978 21.3614L11.7446 21.4396L11.8016 21.5345L11.8017 21.5344L11.8017 21.5344L11.802 21.5342M11.5629 21.1365L11.5936 21.1877M14.8066 19.0333C14.8394 18.9025 14.8145 18.7687 14.7368 18.6565M14.8066 19.0333L14.8815 19.0521L14.8743 18.8982C14.8694 18.7923 14.8384 18.6983 14.786 18.6227L14.7859 18.6225L14.7368 18.6565M14.8066 19.0333L14.8815 19.0521L14.8889 19.2109L14.737 19.302H14.7368L14.6266 19.3681L14.6266 19.3681L14.6265 19.3682L11.5937 21.1876M14.7368 18.6565L14.7858 18.6225L12.5465 22.775C12.6417 22.7177 12.6732 22.5938 12.6155 22.4977C12.5582 22.4023 12.434 22.371 12.3383 22.4284L15.3711 20.609C15.4408 20.5671 15.5139 20.5355 15.5884 20.5138L16.0588 20.1926L16.0589 20.1926L16.0848 20.1749C16.1951 20.0995 16.2681 19.9951 16.2981 19.8749L16.2982 19.8748L16.2404 19.8603M11.5937 21.1876C11.6892 21.1306 11.8134 21.1615 11.871 21.2569C11.8711 21.2572 11.8712 21.2574 11.8713 21.2576C11.9286 21.3536 11.897 21.4771 11.802 21.5342M11.5937 21.1876C11.5937 21.1876 11.5936 21.1877 11.5936 21.1877M11.5937 21.1876L11.5936 21.1877M11.802 21.5342L14.8346 19.715L14.8347 19.7149L14.8348 19.7148C14.8349 19.7148 14.835 19.7147 14.8351 19.7147L14.8653 19.7651L14.8655 19.7653L14.8658 19.7659M11.802 21.5342L11.698 21.3613L11.6978 21.3609L11.6626 21.3024L11.5936 21.1877M14.8658 19.7659V19.6954C14.9243 19.6571 14.9779 19.6127 15.0257 19.5631L15.5249 19.3025L15.525 19.3025L15.5526 19.2881C15.6329 19.2462 15.7138 19.2266 15.7906 19.2266C15.8322 19.2266 15.8751 19.2317 15.9188 19.2426C15.9188 19.2426 15.9188 19.2426 15.9188 19.2426C15.919 19.2426 15.9191 19.2427 15.9193 19.2427L16.017 18.8503M14.8658 19.7659L15.5549 19.3525C15.6605 19.2892 15.7842 19.2706 15.9044 19.3005C16.0239 19.3303 16.1248 19.4051 16.1882 19.5109C16.2517 19.6168 16.2702 19.741 16.2404 19.8603M16.017 18.8503C16.017 18.8503 16.0169 18.8503 16.0169 18.8503M16.017 18.8503C16.2561 18.91 16.4594 19.061 16.5861 19.272L16.6372 19.2414M16.017 18.8503L16.0314 18.7924M16.0169 18.8503L15.9189 19.2426C16.0547 19.2765 16.1672 19.3599 16.2392 19.48C16.2393 19.4801 16.2393 19.4802 16.2393 19.4802C16.2393 19.4802 16.2393 19.4802 16.2394 19.4803C16.3116 19.601 16.332 19.7394 16.2982 19.8746L16.2982 19.8748L16.2404 19.8603M16.0169 18.8503C16.0169 18.8503 16.0168 18.8503 16.0168 18.8502L16.0162 18.8501C15.9445 18.8323 15.8718 18.8232 15.7996 18.8225M16.0169 18.8503L16.0314 18.7924M15.5793 20.9556L15.8409 20.7987L16.1107 20.9578C16.1915 21.0055 16.2525 21.0651 16.2938 21.1341L16.2939 21.1344C16.294 21.1344 16.294 21.1345 16.2941 21.1346L16.2432 21.1652M15.5793 20.9556L16.3531 21.5292C16.3868 21.3935 16.3663 21.2552 16.2941 21.1346L16.2432 21.1652M15.5793 20.9556L15.61 21.0068M15.5793 20.9556L15.5793 20.9556L15.61 21.0068M16.2432 21.1652C16.1122 20.9469 15.828 20.8759 15.61 21.0068M16.2432 21.1652C16.3068 21.271 16.3253 21.3953 16.2955 21.5148L15.61 21.0068M16.6854 20.8849C16.6876 20.8885 16.6898 20.8921 16.692 20.8958L16.6854 20.8849ZM16.6854 20.8849C16.6697 20.8971 16.6538 20.9091 16.6376 20.9207C16.6387 20.9225 16.6398 20.9242 16.6408 20.926L16.6854 20.8849ZM16.6131 20.1771C16.6466 20.1131 16.6727 20.0446 16.6906 19.9729L16.6131 20.1771ZM16.6131 20.1771C16.6298 20.1875 16.6463 20.1982 16.6627 20.2093C16.6999 20.14 16.7288 20.0657 16.7484 19.9872C16.8122 19.7322 16.7727 19.4674 16.6372 19.2414M16.6131 20.1771L16.6906 19.9728C16.7504 19.7336 16.7127 19.4833 16.5863 19.2724L16.5862 19.2721C16.5861 19.2721 16.5861 19.2721 16.5861 19.272L16.6372 19.2414M16.6372 19.2414C16.5019 19.0157 16.2867 18.8562 16.0314 18.7924M16.0314 18.7924L15.7943 18.7625M15.7943 18.7625C15.7965 18.7826 15.7982 18.8026 15.7996 18.8225M15.7943 18.7625C15.7931 18.7625 15.7919 18.7625 15.7906 18.7625C15.6337 18.7625 15.4796 18.8027 15.3379 18.8767M15.7943 18.7625L15.3379 18.8767M15.7996 18.8225C15.8003 18.8334 15.8009 18.8443 15.8014 18.8551L15.7906 18.8556L15.5026 18.869M15.7996 18.8225C15.7966 18.8225 15.7936 18.8225 15.7906 18.8225C15.6927 18.8226 15.5956 18.8383 15.5026 18.869M15.5026 18.869L15.3379 18.8767M15.5026 18.869C15.4553 18.8847 15.4091 18.9042 15.3644 18.9275C15.3482 18.936 15.3322 18.945 15.3163 18.9544L15.3162 18.9545L15.2832 18.9743M15.3379 18.8767L15.0734 19.1002L15.0735 19.1001L15.2568 19.146C15.2568 19.1461 15.2568 19.1461 15.2567 19.1461C15.271 19.0891 15.2798 19.0316 15.2832 18.9743M15.3379 18.8767L15.267 18.741M15.3379 18.8767C15.3305 18.7186 15.2888 18.5629 15.2089 18.4239C15.1907 18.432 15.1726 18.4404 15.1548 18.4492M15.2832 18.9743C15.2851 18.9425 15.2853 18.9108 15.2838 18.8792C15.2818 18.8326 15.2761 18.7864 15.267 18.741M15.2832 18.9743L15.267 18.741M15.267 18.741L15.1231 18.4653C15.1336 18.4598 15.1442 18.4545 15.1548 18.4492M15.267 18.741L15.1183 18.3923C15.1312 18.4109 15.1434 18.4299 15.1548 18.4492M15.267 18.741C15.2466 18.6389 15.2089 18.5404 15.1548 18.4492M16.3464 20.5581L16.4258 20.4236C16.3914 20.4558 16.3544 20.4854 16.3151 20.5123C16.3 20.5226 16.2846 20.5325 16.2688 20.542L16.2685 20.5421L16.235 20.5623L16.3464 20.5581ZM8.93563 18.3985L8.88287 18.3707C8.87317 18.3882 8.84902 18.4317 8.81336 18.4959C8.80452 18.5119 8.79499 18.529 8.78479 18.5474C8.80297 18.5565 8.82131 18.5644 8.83968 18.5714C8.87105 18.5148 8.90303 18.4572 8.93563 18.3985ZM13.0826 23.6691C13.0826 23.6692 13.0825 23.6692 13.0825 23.6692L13.0826 23.6691Z" fill="#4CAF4F" stroke="#4CAF4F" stroke-width="0.928093"/>
<path d="M24.7845 19.2346L24.7844 19.2347L24.7845 19.2346ZM24.7845 19.2346C24.6872 19.0605 24.6912 18.846 24.7942 18.6743L24.7845 19.2346ZM19.0429 18.8224C18.9704 18.823 18.8975 18.8322 18.8255 18.8502L19.0429 18.8224ZM19.0429 18.8224C19.0442 18.8024 19.046 18.7825 19.0481 18.7625L19.0429 18.8224ZM24.3668 19.5601L24.3274 19.4891L24.3668 19.5601ZM23.2487 21.1876C23.2486 21.1875 23.2485 21.1875 23.2484 21.1874L23.2485 21.1875L23.2487 21.1876ZM21.7598 23.6695C21.7597 23.6695 21.7596 23.6694 21.7595 23.6694L21.7598 23.6695ZM21.7593 23.6693L21.7595 23.6693L21.7593 23.6693Z" fill="#4CAF4F" stroke="#4CAF4F" stroke-width="0.928093"/>
</svg>
