<svg width="11" height="11" viewBox="0 0 11 11" fill="none" xmlns="http://www.w3.org/2000/svg">
<path opacity="0.1" fill-rule="evenodd" clip-rule="evenodd" d="M0.113525 5.39541C0.113525 2.44518 2.50516 0.0535431 5.45539 0.0535431C8.40562 0.0535431 10.7973 2.44518 10.7973 5.39541C10.7973 8.34564 8.40562 10.7373 5.45539 10.7373C2.50516 10.7373 0.113525 8.34564 0.113525 5.39541Z" fill="white"/>
<path fill-rule="evenodd" clip-rule="evenodd" d="M8.30443 5.39146C8.30443 5.58413 8.28482 5.77654 8.24629 5.96409C8.20872 6.14718 8.15308 6.32694 8.08018 6.49878C8.00896 6.66757 7.92062 6.83024 7.81739 6.98193C7.7157 7.13267 7.59856 7.27408 7.46987 7.403C7.34091 7.53135 7.19901 7.64817 7.04835 7.75029C6.89615 7.8528 6.73326 7.94101 6.56436 8.01257C6.39227 8.08508 6.2121 8.14064 6.02917 8.17815C5.84137 8.21678 5.64826 8.2365 5.45531 8.2365C5.26222 8.2365 5.06912 8.21678 4.88159 8.17815C4.69838 8.14064 4.51822 8.08508 4.34626 8.01257C4.17738 7.94101 4.01432 7.8528 3.86213 7.75029C3.71147 7.64818 3.56957 7.53135 3.44088 7.403C3.31206 7.27408 3.19492 7.13267 3.09309 6.98193C2.99042 6.83024 2.90193 6.66756 2.83043 6.49878C2.75752 6.32694 2.70174 6.14717 2.66404 5.96409C2.62593 5.77654 2.60645 5.58413 2.60645 5.39146C2.60645 5.19865 2.62592 5.00583 2.66405 4.81869C2.70176 4.6356 2.75753 4.45556 2.83044 4.284C2.90194 4.11508 2.99043 3.95228 3.0931 3.80057C3.19493 3.64971 3.31207 3.50856 3.44089 3.37951C3.56958 3.25114 3.71148 3.1346 3.86214 3.03263C4.01434 2.92969 4.17739 2.84149 4.34627 2.7698C4.51823 2.69713 4.69838 2.64143 4.8816 2.60421C5.06913 2.56587 5.26223 2.54642 5.45532 2.54642C5.64827 2.54642 5.84137 2.56587 6.02918 2.60421C6.21211 2.64144 6.39227 2.69714 6.56437 2.7698C6.73326 2.84148 6.89616 2.92969 7.04836 3.03263C7.19902 3.1346 7.34093 3.25114 7.46989 3.37951C7.59857 3.50856 7.71572 3.64971 7.8174 3.80057C7.92062 3.95228 8.00896 4.11509 8.08018 4.284C8.15308 4.45556 8.20872 4.6356 8.24629 4.81869C8.28482 5.00583 8.30443 5.19865 8.30443 5.39146ZM4.4172 3.19391C3.73871 3.51385 3.23232 4.13814 3.07442 4.89052C3.13856 4.89108 4.15246 4.90386 5.32063 4.59392C4.89952 3.84682 4.44962 3.23713 4.4172 3.19391ZM5.52221 4.96804C4.26945 5.34255 3.06733 5.31561 3.02421 5.31395C3.0235 5.34006 3.02225 5.36534 3.02225 5.39146C3.02225 6.01561 3.25806 6.58461 3.64564 7.01485C3.64481 7.0136 4.31064 5.83405 5.62363 5.41008C5.65534 5.39952 5.68763 5.39007 5.71962 5.3809C5.65856 5.24283 5.5919 5.10446 5.52221 4.96804ZM7.06212 3.56802C6.63377 3.19085 6.07132 2.96207 5.4553 2.96207C5.25761 2.96207 5.06577 2.98596 4.882 3.03014C4.91844 3.07904 5.37545 3.68444 5.79155 4.44737C6.7096 4.10369 7.05613 3.57691 7.06212 3.56802ZM5.88547 5.78349C5.88005 5.78528 5.87463 5.78683 5.86933 5.78876C4.43379 6.28849 3.965 7.29559 3.95993 7.30658C4.37298 7.62733 4.89105 7.82085 5.45532 7.82085C5.79225 7.82085 6.1132 7.75235 6.40521 7.62831C6.36918 7.41604 6.22783 6.672 5.88547 5.78349ZM6.81491 7.40632C7.36122 7.0382 7.74921 6.45363 7.85745 5.77653C7.80737 5.76041 7.12666 5.54523 6.34134 5.67095C6.66047 6.5467 6.79014 7.25991 6.81491 7.40632ZM5.97882 4.80939C6.03529 4.92525 6.08998 5.04317 6.14047 5.16168C6.15842 5.2042 6.17595 5.24588 6.19306 5.28755C7.02888 5.18252 7.85232 5.35922 7.88752 5.36644C7.88196 4.79049 7.67564 4.26191 7.33426 3.84808C7.32966 3.8546 6.93943 4.41763 5.97882 4.80939Z" fill="white"/>
</svg>
